<svg width="8" height="12" viewBox="0 0 8 12" fill="none" xmlns="http://www.w3.org/2000/svg">
<path d="M7.33346 5.53176L1.9933 0.191706C1.86979 0.068097 1.70492 0 1.52911 0C1.35331 0 1.18843 0.068097 1.06492 0.191706L0.671657 0.584873C0.415757 0.841066 0.415757 1.25745 0.671657 1.51326L5.15591 5.99751L0.666681 10.4867C0.54317 10.6104 0.474976 10.7751 0.474976 10.9508C0.474976 11.1267 0.54317 11.2915 0.666681 11.4152L1.05995 11.8083C1.18356 11.9319 1.34833 12 1.52414 12C1.69994 12 1.86482 11.9319 1.98833 11.8083L7.33346 6.46336C7.45726 6.33936 7.52526 6.1738 7.52487 5.99781C7.52526 5.82112 7.45726 5.65566 7.33346 5.53176Z" fill="white"/>
</svg>
