<svg width="15" height="15" viewBox="0 0 15 15" fill="none" xmlns="http://www.w3.org/2000/svg">
<path d="M10.9425 4.18524L6 9.12774L3.3075 6.44274L2.25 7.50024L6 11.2502L12 5.25024L10.9425 4.18524ZM7.5 0.000244141C3.36 0.000244141 0 3.36024 0 7.50024C0 11.6402 3.36 15.0002 7.5 15.0002C11.64 15.0002 15 11.6402 15 7.50024C15 3.36024 11.64 0.000244141 7.5 0.000244141ZM7.5 13.5002C4.185 13.5002 1.5 10.8152 1.5 7.50024C1.5 4.18524 4.185 1.50024 7.5 1.50024C10.815 1.50024 13.5 4.18524 13.5 7.50024C13.5 10.8152 10.815 13.5002 7.5 13.5002Z" fill="black"/>
</svg>
