<svg width="15" height="15" viewBox="0 0 15 15" fill="none" xmlns="http://www.w3.org/2000/svg">
<path d="M7.50171 0.000244337C6.01828 -9.5276e-05 4.56807 0.439487 3.33447 1.26339C2.10088 2.08729 1.13931 3.25852 0.571386 4.62894C0.00346539 5.99935 -0.145286 7.50739 0.143909 8.96236C0.433104 10.4173 1.14726 11.7539 2.19609 12.8029C3.24491 13.852 4.5813 14.5665 6.0362 14.856C7.4911 15.1455 8.99918 14.9971 10.3697 14.4295C11.7403 13.8619 12.9117 12.9006 13.7359 11.6672C14.5601 10.4338 15 8.98368 15 7.50025C15.0001 6.51545 14.8063 5.54026 14.4295 4.63038C14.0527 3.7205 13.5004 2.89375 12.8042 2.19731C12.1079 1.50087 11.2812 0.948397 10.3714 0.571426C9.46164 0.194456 8.48651 0.000357073 7.50171 0.000244337ZM10.4061 10.0191C10.3701 10.0698 10.3245 10.1128 10.2718 10.1458C10.2192 10.1787 10.1605 10.201 10.0992 10.2112C10.038 10.2214 9.97529 10.2194 9.9148 10.2053C9.8543 10.1912 9.79717 10.1653 9.74672 10.129L6.966 8.14328V3.93656C6.9761 3.81828 7.03021 3.70808 7.11765 3.62779C7.20509 3.5475 7.31947 3.50295 7.43818 3.50295C7.55689 3.50295 7.67127 3.5475 7.75871 3.62779C7.84614 3.70808 7.90028 3.81828 7.91038 3.93656V7.65735L10.2919 9.36065C10.3428 9.39628 10.3861 9.4416 10.4194 9.49403C10.4527 9.54646 10.4753 9.60497 10.4859 9.66617C10.4965 9.72736 10.4949 9.79004 10.4812 9.85061C10.4675 9.91119 10.442 9.96845 10.4061 10.0191Z" fill="#030303"/>
</svg>
